<?xml version="1.0" standalone="no"?>
<!DOCTYPE svg PUBLIC "-//W3C//DTD SVG 20010904//EN"
 "http://www.w3.org/TR/2001/REC-SVG-20010904/DTD/svg10.dtd">
<svg version="1.0" xmlns="http://www.w3.org/2000/svg"
 width="690.000000pt" height="690.000000pt" viewBox="0 0 690.000000 690.000000"
 preserveAspectRatio="xMidYMid meet">
<metadata>
Created by potrace 1.14, written by Peter Selinger 2001-2017
</metadata>
<g transform="translate(0.000000,690.000000) scale(0.100000,-0.100000)"
fill="#000000" stroke="none">
<path d="M3273 6646 c-297 -57 -545 -229 -728 -506 -222 -336 -1652 -3253
-1896 -3868 -17 -42 -44 -129 -61 -192 -26 -100 -31 -138 -35 -291 -8 -254 24
-418 122 -624 93 -194 281 -412 460 -530 207 -136 495 -228 795 -252 112 -9
370 -10 441 -1 68 9 246 45 260 53 5 4 18 8 29 10 38 7 206 78 280 118 356
191 614 491 745 867 36 106 51 159 61 228 3 20 7 43 10 50 2 8 7 35 9 60 3 26
10 79 15 117 8 65 5 558 -4 685 -6 79 -16 416 -21 698 l-5 242 503 1 c276 1
513 5 527 9 14 4 21 8 16 9 -5 1 3 11 18 22 15 12 25 23 22 26 -2 2 2 15 8 29
18 33 12 143 -9 188 -34 71 62 67 -1332 64 -1363 -3 -1295 0 -1309 -55 -4 -13
-10 -23 -14 -23 -10 0 -27 -49 -29 -83 -1 -20 3 -26 12 -21 9 6 9 5 0 -8 -7
-8 -10 -17 -8 -20 5 -5 11 -27 19 -68 2 -8 8 -15 14 -15 6 0 14 -4 19 -9 5 -5
3 -6 -4 -2 -7 4 -13 3 -13 -2 0 -4 16 -16 35 -25 32 -15 92 -17 608 -17 l572
0 1 -213 c2 -234 10 -537 21 -770 9 -197 10 -564 1 -647 -37 -332 -155 -590
-367 -798 -164 -162 -368 -273 -601 -328 -63 -14 -254 -12 -370 6 -41 6 -84
12 -95 13 -11 2 -26 6 -32 10 -7 5 -13 6 -13 3 0 -2 -14 -1 -32 4 -17 5 -68
12 -112 16 -373 30 -687 275 -805 629 -80 240 -59 471 69 775 51 123 319 699
570 1225 315 662 1077 2176 1211 2406 115 197 236 305 412 364 161 54 328 41
486 -37 118 -58 232 -171 318 -319 71 -121 470 -906 792 -1559 443 -900 968
-2019 1027 -2194 63 -184 77 -403 36 -569 -40 -160 -119 -312 -213 -407 -24
-24 -43 -48 -42 -52 2 -4 -3 -7 -10 -5 -6 1 -11 -4 -10 -10 2 -7 -3 -12 -10
-10 -6 1 -11 -4 -10 -10 2 -7 -1 -12 -6 -10 -5 1 -22 -11 -38 -28 -39 -40 -83
-74 -110 -87 -13 -6 -23 -15 -23 -20 0 -4 -7 -8 -15 -8 -8 0 -15 -4 -15 -9 0
-18 -184 -84 -237 -84 -7 0 -13 -3 -13 -7 0 -4 -11 -6 -25 -5 -14 2 -25 -1
-25 -6 0 -5 -3 -8 -7 -7 -5 1 -30 -3 -58 -10 -69 -16 -155 -21 -155 -8 0 7 -3
6 -8 -1 -7 -11 -40 -15 -232 -29 -102 -7 -167 -25 -162 -44 1 -6 -2 -9 -7 -5
-9 5 -32 -25 -37 -47 -1 -5 -2 -9 -4 -10 -3 -4 -11 -51 -11 -68 -1 -54 27
-124 62 -156 51 -46 488 -16 754 53 343 88 524 189 742 413 210 215 353 592
353 929 0 261 -61 449 -328 1011 -27 58 -97 206 -155 330 -327 703 -710 1484
-1104 2255 -387 758 -422 816 -592 986 -136 135 -286 222 -468 270 -101 27
-326 35 -430 15z"/>
<path d="M2380 3240 c0 -5 4 -10 9 -10 6 0 13 5 16 10 3 6 -1 10 -9 10 -9 0
-16 -4 -16 -10z"/>
<path d="M4260 2875 c7 -9 15 -13 17 -11 7 7 -7 26 -19 26 -6 0 -6 -6 2 -15z"/>
</g>
</svg>
