<?xml version="1.0" standalone="no"?>
<!DOCTYPE svg PUBLIC "-//W3C//DTD SVG 20010904//EN"
 "http://www.w3.org/TR/2001/REC-SVG-20010904/DTD/svg10.dtd">
<svg version="1.0" xmlns="http://www.w3.org/2000/svg"
 width="225.000000pt" height="225.000000pt" viewBox="0 0 225.000000 225.000000"
 preserveAspectRatio="xMidYMid meet">
<metadata>
Created by potrace 1.14, written by Peter Selinger 2001-2017
</metadata>
<g transform="translate(0.000000,225.000000) scale(0.100000,-0.100000)"
fill="#000000" stroke="none">
<path d="M1055 2000 c-26 -11 -1014 -833 -1039 -865 -19 -24 -19 -24 7 -62 42
-59 94 -113 111 -113 9 0 231 179 493 398 263 219 483 401 490 405 8 5 186
-137 490 -391 263 -219 484 -401 491 -406 7 -4 20 -5 30 -1 24 7 122 127 122
149 0 8 -72 75 -160 148 l-159 133 -1 292 c0 251 -2 294 -16 307 -21 21 -315
24 -332 3 -7 -8 -13 -71 -14 -155 l-3 -142 -174 146 c-96 80 -185 150 -199
155 -29 11 -110 11 -137 -1z"/>
<path d="M720 1322 l-395 -327 0 -359 0 -358 28 -24 28 -24 285 0 284 0 0 265
0 265 175 0 175 0 0 -265 0 -265 284 0 285 0 28 24 28 24 2 359 2 358 -395
325 c-218 179 -401 326 -408 327 -6 1 -189 -145 -406 -325z"/>
</g>
</svg>
